<svg width="334" height="127" viewBox="0 0 334 127" fill="none" xmlns="http://www.w3.org/2000/svg">
<g clip-path="url(#clip0_103_2)">
<path d="M45.6 65.74H23.95C20.08 65.74 16.95 68.87 16.95 72.74V94.39C16.95 98.26 20.08 101.39 23.95 101.39H45.6C49.47 101.39 52.6 98.26 52.6 94.39V72.74C52.6 68.87 49.47 65.74 45.6 65.74Z" fill="url(#paint0_linear_103_2)"/>
<path d="M46.54 61.62H23.01C20.32 61.62 18.63 58.7 19.98 56.37L31.75 36C33.1 33.67 36.47 33.67 37.81 36L49.57 56.37C50.92 58.7 49.23 61.62 46.54 61.62Z" fill="url(#paint1_linear_103_2)"/>
<path d="M101.84 69.79C103.86 71.4 105.47 73.39 106.66 75.77C107.85 78.15 108.44 80.68 108.44 83.38C108.44 86.79 107.57 89.85 105.84 92.58C104.11 95.31 101.58 97.46 98.28 99.04C94.97 100.61 91.07 101.4 86.57 101.4H61.51V34.23H85.6C90.16 34.23 94.05 34.99 97.26 36.49C100.47 38 102.88 40.04 104.49 42.61C106.09 45.18 106.9 48.07 106.9 51.28C106.9 55.26 105.82 58.56 103.67 61.16C101.52 63.76 98.67 65.64 95.14 66.8C97.58 67.19 99.81 68.19 101.84 69.79ZM70.28 63.24H85.02C89.13 63.24 92.31 62.28 94.56 60.35C96.81 58.42 97.93 55.76 97.93 52.35C97.93 48.95 96.81 46.28 94.56 44.35C92.31 42.42 89.07 41.46 84.83 41.46H70.28V63.24ZM96.01 91.09C98.45 89.03 99.67 86.18 99.67 82.51C99.67 78.78 98.38 75.85 95.82 73.69C93.25 71.54 89.81 70.46 85.51 70.46H70.28V94.17H85.79C90.16 94.18 93.56 93.15 96.01 91.09Z" fill="white"/>
<path d="M118.56 38.28C117.4 37.12 116.83 35.71 116.83 34.04C116.83 32.37 117.41 30.96 118.56 29.8C119.72 28.64 121.13 28.07 122.8 28.07C124.4 28.07 125.77 28.65 126.9 29.8C128.02 30.96 128.59 32.37 128.59 34.04C128.59 35.71 128.03 37.12 126.9 38.28C125.78 39.44 124.41 40.01 122.8 40.01C121.13 40.02 119.71 39.44 118.56 38.28ZM127.04 48.59V101.4H118.27V48.59H127.04Z" fill="white"/>
<path d="M150.36 55.82V86.95C150.36 89.52 150.91 91.33 152 92.39C153.09 93.45 154.99 93.98 157.69 93.98H164.15V101.4H156.25C151.37 101.4 147.71 100.28 145.26 98.03C142.82 95.78 141.6 92.09 141.6 86.95V55.82H134.76V48.59H141.6V35.29H150.37V48.59H164.15V55.82H150.36V55.82Z" fill="white"/>
<path d="M218.83 53.17C222.59 57.25 224.47 62.85 224.47 69.99V101.41H208.09V72.2C208.09 68.6 207.16 65.81 205.3 63.82C203.44 61.83 200.93 60.83 197.78 60.83C194.63 60.83 192.13 61.83 190.26 63.82C188.4 65.81 187.47 68.61 187.47 72.2V101.4H170.99V47.63H187.47V54.76C189.14 52.38 191.39 50.5 194.22 49.12C197.05 47.74 200.23 47.05 203.76 47.05C210.04 47.05 215.07 49.09 218.83 53.17Z" fill="white"/>
<path d="M234.82 39.49C232.99 37.79 232.07 35.68 232.07 33.18C232.07 30.61 232.99 28.47 234.82 26.77C236.65 25.07 239.01 24.22 241.9 24.22C244.73 24.22 247.06 25.07 248.89 26.77C250.72 28.47 251.64 30.61 251.64 33.18C251.64 35.69 250.72 37.79 248.89 39.49C247.06 41.19 244.73 42.04 241.9 42.04C239.02 42.04 236.65 41.19 234.82 39.49ZM250.1 47.63V101.4H233.62V47.63H250.1Z" fill="white"/>
<path d="M282.86 49.17C285.75 47.63 289.06 46.86 292.79 46.86C297.22 46.86 301.24 47.98 304.84 50.23C308.44 52.48 311.28 55.69 313.37 59.87C315.46 64.05 316.5 68.9 316.5 74.42C316.5 79.95 315.45 84.81 313.37 89.02C311.28 93.23 308.44 96.47 304.84 98.75C301.24 101.03 297.23 102.17 292.79 102.17C289 102.17 285.69 101.41 282.86 99.9C280.03 98.39 277.82 96.38 276.21 93.88V101.4H259.73V30.09H276.21V55.24C277.76 52.74 279.97 50.71 282.86 49.17ZM296.31 64.73C294.03 62.39 291.22 61.21 287.88 61.21C284.6 61.21 281.82 62.4 279.54 64.78C277.26 67.16 276.12 70.4 276.12 74.51C276.12 78.62 277.26 81.87 279.54 84.24C281.82 86.62 284.6 87.81 287.88 87.81C291.16 87.81 293.95 86.6 296.26 84.2C298.57 81.79 299.73 78.53 299.73 74.42C299.73 70.31 298.59 67.08 296.31 64.73Z" fill="white"/>
</g>
<defs>
<linearGradient id="paint0_linear_103_2" x1="16.2206" y1="83.566" x2="52.173" y2="83.566" gradientUnits="userSpaceOnUse">
<stop stop-color="#FFB3C3"/>
<stop offset="1" stop-color="#FF5964"/>
</linearGradient>
<linearGradient id="paint1_linear_103_2" x1="19.5084" y1="47.9331" x2="50.0448" y2="47.9331" gradientUnits="userSpaceOnUse">
<stop stop-color="#7BAEFF"/>
<stop offset="1" stop-color="#0055FF"/>
</linearGradient>
<clipPath id="clip0_103_2">
<rect width="333.45" height="126.39" fill="white"/>
</clipPath>
</defs>
</svg>
