<?xml version="1.0" encoding="utf-8"?>
<!-- Generator: Adobe Illustrator 26.3.1, SVG Export Plug-In . SVG Version: 6.00 Build 0)  -->
<svg version="1.1" id="Layer_1" xmlns="http://www.w3.org/2000/svg" xmlns:xlink="http://www.w3.org/1999/xlink" x="0px" y="0px"
	 viewBox="0 0 333.45 126.39" style="enable-background:new 0 0 333.45 126.39;" xml:space="preserve">
<style type="text/css">
	.st0{fill:url(#SVGID_1_);}
	.st1{fill:url(#SVGID_00000029734830342561037720000012062856709206100661_);}
	.st2{fill:#FF5964;}
	.st3{fill:#FFB3C3;}
	.st4{fill:#0055FF;}
	.st5{fill:url(#SVGID_00000131328196635910882940000017015133073823410863_);}
	.st6{fill:#7BAEFF;}
	.st7{fill:url(#SVGID_00000164489172913091717750000017666783261099147906_);}
	.st8{fill:url(#SVGID_00000117659936868531930140000006086434596905484443_);}
	.st9{fill:#FFF8FA;}
	.st10{fill:#E6F1FF;}
</style>
<linearGradient id="SVGID_1_" gradientUnits="userSpaceOnUse" x1="16.2206" y1="83.566" x2="52.173" y2="83.566">
	<stop  offset="0" style="stop-color:#FFB3C3"/>
	<stop  offset="1" style="stop-color:#FF5964"/>
</linearGradient>
<path class="st0" d="M45.6,65.74H23.95c-3.87,0-7,3.13-7,7v21.65c0,3.87,3.13,7,7,7H45.6c3.87,0,7-3.13,7-7V72.74
	C52.6,68.87,49.47,65.74,45.6,65.74z"/>
<g>
	
		<linearGradient id="SVGID_00000022544011682326612220000008714458758257178799_" gradientUnits="userSpaceOnUse" x1="19.5084" y1="47.9331" x2="50.0448" y2="47.9331">
		<stop  offset="0" style="stop-color:#7BAEFF"/>
		<stop  offset="1" style="stop-color:#0055FF"/>
	</linearGradient>
	<path style="fill:url(#SVGID_00000022544011682326612220000008714458758257178799_);" d="M46.54,61.62H23.01
		c-2.69,0-4.38-2.92-3.03-5.25L31.75,36c1.35-2.33,4.72-2.33,6.06,0l11.76,20.37C50.92,58.7,49.23,61.62,46.54,61.62z"/>
</g>
<g>
	<path d="M101.84,69.79c2.02,1.61,3.63,3.6,4.82,5.98c1.19,2.38,1.78,4.91,1.78,7.61c0,3.41-0.87,6.47-2.6,9.2
		c-1.73,2.73-4.26,4.88-7.56,6.46c-3.31,1.57-7.21,2.36-11.71,2.36H61.51V34.23H85.6c4.56,0,8.45,0.76,11.66,2.26
		c3.21,1.51,5.62,3.55,7.23,6.12c1.6,2.57,2.41,5.46,2.41,8.67c0,3.98-1.08,7.28-3.23,9.88c-2.15,2.6-5,4.48-8.53,5.64
		C97.58,67.19,99.81,68.19,101.84,69.79z M70.28,63.24h14.74c4.11,0,7.29-0.96,9.54-2.89c2.25-1.93,3.37-4.59,3.37-8
		c0-3.4-1.12-6.07-3.37-8c-2.25-1.93-5.49-2.89-9.73-2.89H70.28V63.24z M96.01,91.09c2.44-2.06,3.66-4.91,3.66-8.58
		c0-3.73-1.29-6.66-3.85-8.82c-2.57-2.15-6.01-3.23-10.31-3.23H70.28v23.71h15.51C90.16,94.18,93.56,93.15,96.01,91.09z"/>
	<path d="M118.56,38.28c-1.16-1.16-1.73-2.57-1.73-4.24c0-1.67,0.58-3.08,1.73-4.24c1.16-1.16,2.57-1.73,4.24-1.73
		c1.6,0,2.97,0.58,4.1,1.73c1.12,1.16,1.69,2.57,1.69,4.24c0,1.67-0.56,3.08-1.69,4.24c-1.12,1.16-2.49,1.73-4.1,1.73
		C121.13,40.02,119.71,39.44,118.56,38.28z M127.04,48.59v52.81h-8.77V48.59H127.04z"/>
	<path d="M150.36,55.82v31.13c0,2.57,0.55,4.38,1.64,5.44c1.09,1.06,2.99,1.59,5.69,1.59h6.46v7.42h-7.9
		c-4.88,0-8.54-1.12-10.99-3.37c-2.44-2.25-3.66-5.94-3.66-11.08V55.82h-6.84v-7.23h6.84v-13.3h8.77v13.3h13.78v7.23H150.36z"/>
	<path d="M218.83,53.17c3.76,4.08,5.64,9.68,5.64,16.82v31.42h-16.38V72.2c0-3.6-0.93-6.39-2.79-8.38
		c-1.86-1.99-4.37-2.99-7.52-2.99c-3.15,0-5.65,1-7.52,2.99c-1.86,1.99-2.79,4.79-2.79,8.38v29.2h-16.48V47.63h16.48v7.13
		c1.67-2.38,3.92-4.26,6.75-5.64c2.83-1.38,6.01-2.07,9.54-2.07C210.04,47.05,215.07,49.09,218.83,53.17z"/>
	<path d="M234.82,39.49c-1.83-1.7-2.75-3.81-2.75-6.31c0-2.57,0.92-4.71,2.75-6.41c1.83-1.7,4.19-2.55,7.08-2.55
		c2.83,0,5.16,0.85,6.99,2.55c1.83,1.7,2.75,3.84,2.75,6.41c0,2.51-0.92,4.61-2.75,6.31c-1.83,1.7-4.16,2.55-6.99,2.55
		C239.02,42.04,236.65,41.19,234.82,39.49z M250.1,47.63v53.77h-16.48V47.63H250.1z"/>
	<path d="M282.86,49.17c2.89-1.54,6.2-2.31,9.93-2.31c4.43,0,8.45,1.12,12.05,3.37c3.6,2.25,6.44,5.46,8.53,9.64
		c2.09,4.18,3.13,9.03,3.13,14.55c0,5.53-1.05,10.39-3.13,14.6c-2.09,4.21-4.93,7.45-8.53,9.73c-3.6,2.28-7.61,3.42-12.05,3.42
		c-3.79,0-7.1-0.76-9.93-2.27c-2.83-1.51-5.04-3.52-6.65-6.02v7.52h-16.48V30.09h16.48v25.15
		C277.76,52.74,279.97,50.71,282.86,49.17z M296.31,64.73c-2.28-2.34-5.09-3.52-8.43-3.52c-3.28,0-6.06,1.19-8.34,3.57
		c-2.28,2.38-3.42,5.62-3.42,9.73c0,4.11,1.14,7.36,3.42,9.73c2.28,2.38,5.06,3.57,8.34,3.57s6.07-1.21,8.38-3.61
		c2.31-2.41,3.47-5.67,3.47-9.78C299.73,70.31,298.59,67.08,296.31,64.73z"/>
</g>
<rect x="-138.23" y="0.05" class="st2" width="37.41" height="37.41"/>
<rect x="-94.43" y="0.05" class="st3" width="37.41" height="37.41"/>
<rect x="-138.23" y="42.68" class="st4" width="37.41" height="37.41"/>
<linearGradient id="SVGID_00000000940226350954441180000003642788060273911174_" gradientUnits="userSpaceOnUse" x1="-138.2264" y1="107.7269" x2="-100.8117" y2="107.7269">
	<stop  offset="0" style="stop-color:#7BAEFF"/>
	<stop  offset="1" style="stop-color:#0055FF"/>
</linearGradient>
<rect x="-138.23" y="89.02" style="fill:url(#SVGID_00000000940226350954441180000003642788060273911174_);" width="37.41" height="37.41"/>
<rect x="-94.43" y="42.68" class="st6" width="37.41" height="37.41"/>
<linearGradient id="SVGID_00000076601361767813666830000002677888532411850680_" gradientUnits="userSpaceOnUse" x1="-94.4309" y1="107.7269" x2="-57.0162" y2="107.7269">
	<stop  offset="0" style="stop-color:#FFB3C3"/>
	<stop  offset="1" style="stop-color:#FF5964"/>
</linearGradient>
<rect x="-94.43" y="89.02" style="fill:url(#SVGID_00000076601361767813666830000002677888532411850680_);" width="37.41" height="37.41"/>
<linearGradient id="SVGID_00000134243278734367978410000000542655244435866240_" gradientUnits="userSpaceOnUse" x1="-31.8644" y1="89.6163" x2="-31.9921" y2="125.9993">
	<stop  offset="5.027728e-03" style="stop-color:#FFF8FA"/>
	<stop  offset="0.4637" style="stop-color:#F6F6FC"/>
	<stop  offset="1" style="stop-color:#E6F1FF"/>
</linearGradient>
<rect x="-50.64" y="89.02" style="fill:url(#SVGID_00000134243278734367978410000000542655244435866240_);" width="37.41" height="37.41"/>
<rect x="-50.64" y="0.05" class="st9" width="37.41" height="37.41"/>
<rect x="-50.64" y="42.68" class="st10" width="37.41" height="37.41"/>
<rect x="-131.48" y="27.22" style="fill:none;" width="22.97" height="4.45"/>
<text transform="matrix(1 0 0 1 -131.4796 31.658)" style="font-family:'Poppins-Regular'; font-size:6px;">FF5964</text>
<rect x="-87.21" y="27.22" style="fill:none;" width="22.97" height="4.45"/>
<text transform="matrix(1 0 0 1 -87.2081 31.658)" style="font-family:'Poppins-Regular'; font-size:6px;">FFB3C3</text>
<rect x="-41.8" y="27.22" style="fill:none;" width="22.97" height="4.45"/>
<text transform="matrix(1 0 0 1 -41.8034 31.658)" style="font-family:'Poppins-Regular'; font-size:6px;">FFF8FA</text>
<rect x="-132.05" y="70.24" style="fill:none;" width="22.97" height="4.45"/>
<text transform="matrix(1 0 0 1 -132.0462 74.6793)" style="font-family:'Poppins-Regular'; font-size:6px;">0055FF</text>
<rect x="-87.77" y="70.24" style="fill:none;" width="22.97" height="4.45"/>
<text transform="matrix(1 0 0 1 -87.7747 74.6793)" style="font-family:'Poppins-Regular'; font-size:6px;">7BAEFF</text>
<rect x="-42.37" y="70.24" style="fill:none;" width="22.97" height="4.45"/>
<text transform="matrix(1 0 0 1 -42.37 74.6793)" style="font-family:'Poppins-Regular'; font-size:6px;">E6F1FF</text>
</svg>
